<svg xmlns="http://www.w3.org/2000/svg" width="87.535" height="36.677" viewBox="0 0 87.535 36.677"><defs><style>.a{fill:#fff;}</style></defs><g transform="translate(43.768 18.339)"><g transform="translate(-43.768 -18.339)"><path class="a" d="M25.152,2c.25.035.5.069.753.106.2.029.4.051.6.093a.645.645,0,0,1,.554.649c.005.072,0,.141,0,.213V15.489c0,.08,0,.16-.005.24a1.207,1.207,0,0,1-.4.868,13.6,13.6,0,0,0-2.217,2.643,12.123,12.123,0,0,0-1.8,5.062,14.164,14.164,0,0,0,.436,5.815,11.529,11.529,0,0,0,1.344,2.941.59.59,0,0,1-.043.862,11.687,11.687,0,0,1-4.229,3.321,12.774,12.774,0,0,1-3.774,1.147,13.014,13.014,0,0,1-3.1.037,13.173,13.173,0,0,1-2.627-.53,12.148,12.148,0,0,1-4.835-2.9,12.385,12.385,0,0,1-2.47-3.276,11.523,11.523,0,0,1-1.182-3.84c-.027-.21-.045-.423-.069-.633,0-.17.011-.341,0-.511,0-.051-.059-.1-.088-.144V25.259a3.843,3.843,0,0,0,.1-.455,11.8,11.8,0,0,1,.95-3.688,13.139,13.139,0,0,1,3.648-4.742,11.727,11.727,0,0,1,3.768-2.145,12.911,12.911,0,0,1,5.642-.519.653.653,0,0,1,.588.506,1.5,1.5,0,0,1,.04.394q0,3.964,0,7.928c0,.053,0,.106,0,.16a.5.5,0,0,1-.772.468c-.048-.021-.093-.048-.144-.072a3.088,3.088,0,0,0-1.916-.247,3.322,3.322,0,0,0-1.964,1.179,3.4,3.4,0,0,0,.037,4.415,3.54,3.54,0,0,0,3.161,1.168,2.848,2.848,0,0,0,2.4-1.7,5.371,5.371,0,0,0,.434-1.474,11.32,11.32,0,0,0,.114-1.8V4.092a.914.914,0,0,1,.652-.982,15.263,15.263,0,0,1,4.4-1.051L23.768,2Z" transform="translate(-2 -2)"/><path class="a" d="M2,926c.032.048.085.093.088.144.011.17,0,.341,0,.511L2,926.639Z" transform="translate(-2 -901.411)"/><path class="a" d="M796.005,2.059c0-.019,0-.04-.005-.059h.639Z" transform="translate(-774.87 -2)"/><path class="a" d="M1546.021,30.7h4.1a2.138,2.138,0,0,0,.293-.011.661.661,0,0,0,.588-.647c0-.035,0-.072,0-.106q.012-2.475.021-4.947c0-.072,0-.141.008-.213a.778.778,0,0,1,.527-.732c.615-.224,1.232-.455,1.86-.628a14.43,14.43,0,0,1,4.021-.519,13.934,13.934,0,0,1,2.35.242c.186.035.189.043.2.245.005.088.008.178.008.266.005,1.4.008,2.8.016,4.2q.008,1.289.021,2.579c0,.261.008.266.271.266.95,0,1.9.011,2.847-.005a.8.8,0,0,1,.814.514,11.746,11.746,0,0,1,.649,1.911,14.992,14.992,0,0,1,.506,4.154,12.7,12.7,0,0,1-.184,1.9.567.567,0,0,1-.559.508c-.072.005-.141,0-.213,0h-3.779c-.061,0-.125,0-.187,0-.184.008-.2.019-.2.2-.008.274-.01.551-.01.825,0,1.418-.005,2.839.013,4.258a8.886,8.886,0,0,0,.311,2.286,2.735,2.735,0,0,0,2.222,2.07,6.537,6.537,0,0,0,1.716.152.33.33,0,0,1,.37.245,16.5,16.5,0,0,1,1.177,4.127,14.523,14.523,0,0,1,.138,3.207c-.037.538-.128,1.072-.2,1.607-.029.2-.069.24-.271.261-.343.035-.689.069-1.032.08a14.283,14.283,0,0,1-5.937-.977,11.125,11.125,0,0,1-6.65-6.858,14.263,14.263,0,0,1-.748-3.768c-.056-.884-.083-1.77-.091-2.656-.016-1.312-.024-2.627.005-3.939a1.111,1.111,0,0,0-1.136-1.128c-2.741.019-5.482.013-8.223,0a.515.515,0,0,0-.559.554c0,.061,0,.125,0,.186,0,1.163-.005,2.323,0,3.486,0,.585.024,1.168.051,1.754a7.246,7.246,0,0,0,.285,1.647,2.719,2.719,0,0,0,2.185,2.012,6.62,6.62,0,0,0,1.743.157.32.32,0,0,1,.356.226,16.218,16.218,0,0,1,1.187,4.151,15.628,15.628,0,0,1,.173,2.2,14.231,14.231,0,0,1-.237,2.645c-.027.144-.085.218-.237.229-.354.024-.705.067-1.059.08a14.882,14.882,0,0,1-5.817-.923,11.561,11.561,0,0,1-5.16-3.837,11.36,11.36,0,0,1-2.039-4.577,16.39,16.39,0,0,1-.373-2.922.355.355,0,0,1,.261-.394c1.328-.564,2.653-1.139,3.978-1.714.194-.085.388-.17.58-.266a1.014,1.014,0,0,0,.562-1.195,12.261,12.261,0,0,0-3.292-5.945,12.63,12.63,0,0,0-1.935-1.618.412.412,0,0,1-.2-.391c.005-2.35,0-4.7.005-7.052,0-1.107.016-2.217.019-3.324a.8.8,0,0,1,.546-.82,15.673,15.673,0,0,1,3.819-1.009,13.606,13.606,0,0,1,2.733-.1c.45.032.9.1,1.344.162a.642.642,0,0,1,.524.564,1.91,1.91,0,0,1,.01.213l.016,3.034q.008,1.6.021,3.191c0,.418.2.612.628.612C1543.184,30.7,1544.6,30.7,1546.021,30.7Z" transform="translate(-1491.382 -22.332)"/><path class="a" d="M844.2,502.523a11.976,11.976,0,0,1-5.373-1.123,10.915,10.915,0,0,1-6.219-8.822,12.7,12.7,0,0,1,.274-4.38,10.709,10.709,0,0,1,2.73-4.886,11.7,11.7,0,0,1,2.77-2.18,10.887,10.887,0,0,1,4.1-1.309,12.946,12.946,0,0,1,4.593.247,10.291,10.291,0,0,1,4.186,2.118,10.968,10.968,0,0,1,3.457,4.888c.154.444.194.756-.442,1.049q-6.578,3.03-13.146,6.086c-.1.048-.21.093-.311.149a.53.53,0,0,0-.165.817,3.564,3.564,0,0,0,.982.923,5.8,5.8,0,0,0,2.057.828,4.378,4.378,0,0,0,2.2-.234,9.094,9.094,0,0,0,3.324-2.052.672.672,0,0,1,.213-.154.548.548,0,0,1,.756.367,18.828,18.828,0,0,0,1.376,3.42c.109.224.224.442.333.668a.481.481,0,0,1-.146.66,12.267,12.267,0,0,1-4.8,2.552A10.862,10.862,0,0,1,844.2,502.523Zm.1-16.779a2.871,2.871,0,0,0-1.389.327,4.8,4.8,0,0,0-2.4,3.255.483.483,0,0,0,.181.5.563.563,0,0,0,.668.045c1.666-.788,3.329-1.578,5-2.35a.58.58,0,0,0,.149-.99A3.067,3.067,0,0,0,844.307,485.744Z" transform="translate(-810.433 -467.012)"/><path class="a" d="M2962.662,696.943v8.673c0,.354,0,.354-.344.354h-8.3c-.354,0-.33.021-.33-.333V691.431c0-.737.011-1.472.006-2.209a.279.279,0,0,1,.194-.3,15.17,15.17,0,0,1,3.87-1.115,14.189,14.189,0,0,1,2.624-.16,14.927,14.927,0,0,1,2.006.221c.277.048.277.051.277.346v5.852Q2962.66,695.51,2962.662,696.943Z" transform="translate(-2875.138 -669.397)"/><path class="a" d="M2962.387,341.711V344.4c0,.593-.213.766-.791.673a12.693,12.693,0,0,0-3.047-.106,15.035,15.035,0,0,0-4.434,1.033.521.521,0,0,1-.719-.508c.024-1.772.013-3.547.019-5.32a.94.94,0,0,1,.62-.934,14.745,14.745,0,0,1,3.191-.9,12.977,12.977,0,0,1,3.045-.192c.537.037,1.075.112,1.61.181a.5.5,0,0,1,.505.564c.008.247,0,.5,0,.745Q2962.386,340.673,2962.387,341.711Z" transform="translate(-2874.856 -329.177)"/></g></g></svg>